<?xml version="1.0" encoding="UTF-8"?>
<svg width="200px" height="38px" viewBox="0 0 200 38" version="1.1" xmlns="http://www.w3.org/2000/svg" xmlns:xlink="http://www.w3.org/1999/xlink">
    <!-- Generator: Sketch 49.3 (51167) - http://www.bohemiancoding.com/sketch -->
    <title>Lettering - pagarme - branco</title>
    <desc>Created with Sketch.</desc>
    <defs></defs>
    <g id="Pagar.me-Styleguide" stroke="none" stroke-width="1" fill="none" fill-rule="evenodd">
        <g id="Logotipo-Pagar.Me-Cores" transform="translate(-24.000000, -280.000000)" fill="#FFFFFF">
            <g id="Branco" transform="translate(24.000000, 257.000000)">
                <path d="M188.661556,29.9585502 C186.333379,29.9585502 184.763773,31.1972146 184.763773,34.0364501 L184.763773,35.1196522 L192.559339,35.1196522 L192.559339,34.0364501 C192.559339,31.2494551 190.93912,29.9585502 188.661556,29.9585502 Z M200,39.3523852 C200,39.9207358 199.696325,40.2304019 199.088974,40.2304019 L184.763773,40.2304019 L184.763773,41.0561782 C184.763773,43.6889697 186.434604,45.0302268 189.117069,45.0302268 C191.647696,45.0302268 193.723427,44.2560615 195.545479,43.1728595 C196.001609,42.8109529 196.405892,42.9148044 196.709567,43.3793035 L199.342037,46.9404639 C199.645712,47.4055925 199.645712,47.8694623 199.190199,48.2307394 C196.608342,50.2435692 193.318527,51.6370667 188.864006,51.6370667 C182.283758,51.6370667 176.968824,48.0759063 176.968824,40.9013452 L176.968824,34.3977273 C176.968824,26.7064265 182.283758,23.4026918 188.712786,23.4026918 C194.938128,23.4026918 200,26.6038339 200,34.3977273 L200,39.3523852 Z M160.192098,23 C166.825747,23 171.399135,26.9723116 171.399135,34.1531481 L171.399135,49.2264466 C171.399135,49.837476 171.097634,50.1429906 170.544881,50.1429906 L164.714623,50.1429906 C164.111619,50.1429906 163.810118,49.837476 163.810118,49.2264466 L163.810118,33.8979315 C163.810118,31.4028951 162.604111,29.9262409 159.940846,29.9262409 C158.834727,29.9262409 157.729221,30.1808365 156.673965,30.7409467 C157.025717,31.7593289 157.176468,32.8795493 157.176468,34.0506889 L157.176468,49.2264466 C157.176468,49.837476 156.874967,50.1429906 156.322214,50.1429906 L150.492568,50.1429906 C149.889565,50.1429906 149.588063,49.837476 149.588063,49.2264466 L149.588063,33.8979315 C149.588063,31.2495168 148.382057,29.8747009 145.91918,29.8747009 C144.863924,29.8747009 143.758418,30.0783773 142.953801,30.3335938 L142.953801,49.2264466 C142.953801,49.837476 142.602662,50.1429906 142.049909,50.1429906 L136.219651,50.1429906 C135.616648,50.1429906 135.315146,49.837476 135.315146,49.2264466 L135.315146,26.1066867 C135.315146,25.5974956 135.516147,25.2410618 136.01865,24.9864663 C138.933779,23.7637867 142.551799,23 145.81868,23 C148.431694,23 150.74382,23.7637867 152.65333,25.1392236 C155.317208,23.7128675 157.47797,23 160.192098,23 Z M128.341109,49.966882 L123.107077,46.4046709 C122.545307,46.0221951 122.545307,45.2164029 123.107077,44.8345753 L128.341109,41.271716 C128.997958,40.8244138 129.902547,41.2794951 129.902547,42.0567638 L129.902547,49.1818342 C129.902547,49.9591028 128.997958,50.4135359 128.341109,49.966882 Z M111.132355,51.5881719 C110.517816,51.5881719 110.210547,51.2709809 110.210547,50.6378858 L110.210547,26.6838547 C110.210547,26.20839 110.415393,25.8390844 110.876297,25.5752948 C113.693555,24.1508306 116.971716,23.4122196 120.300464,23.4122196 C121.836809,23.4122196 123.42499,23.6232513 125.268604,23.9397989 C125.831931,24.0446714 126.087989,24.3618624 126.087989,24.9421996 L126.087989,29.7965727 C126.087989,30.4296679 125.729508,30.7462155 125.11497,30.641343 C124.09074,30.4830692 122.963462,30.4296679 121.939232,30.4296679 C120.402887,30.4296679 119.019551,30.6934575 118.046533,31.115521 L118.046533,50.6378858 C118.046533,51.2709809 117.739888,51.5881719 117.175937,51.5881719 L111.132355,51.5881719 Z M93.4130784,45.237552 C94.5771669,45.237552 95.9437055,45.0304785 96.8553485,44.8240345 L96.8553485,40.2816353 C95.8424804,40.0751912 94.4759418,39.9719692 93.3624658,39.9719692 C90.5781587,39.9719692 89.3634577,40.9009675 89.3634577,42.5531496 C89.3634577,44.3595353 90.9830591,45.237552 93.4130784,45.237552 M93.5143035,23.4029436 C100.499452,23.4029436 104.599685,27.1195664 104.599685,34.9657003 L104.599685,49.1077491 C104.599685,49.6244887 104.346005,49.9857658 103.840497,50.1412283 C100.853739,51.0702267 96.8553485,51.6373185 93.4130784,51.6373185 C86.1236377,51.6373185 81.5178963,48.8503234 81.5178963,42.7595937 C81.5178963,37.3914182 85.6681248,34.7070158 92.5526651,34.7070158 C94.121654,34.7070158 95.5894177,34.8624782 96.8553485,35.0173113 L96.8553485,34.5005717 C96.8553485,31.7651876 95.8937102,30.2678386 92.6032777,30.2678386 C90.3763258,30.2678386 87.7432391,30.8878003 86.2760926,31.7135766 C85.8199624,31.9716317 85.313837,31.9200207 85.0607743,31.4039105 L82.98566,27.3782509 C82.7319801,26.8615113 82.7319801,26.5002342 83.0868851,26.2421791 C85.4656746,24.6938485 89.1610075,23.4029436 93.5143035,23.4029436 M66.0850442,43.3236836 C67.5157744,43.3236836 68.8472736,43.0165673 69.5376806,42.4546629 L69.5376806,30.8577534 C68.7973574,30.5512601 67.4171448,30.3469312 66.23359,30.3469312 C63.5699902,30.3469312 61.9913156,31.47074 61.9913156,34.6895427 L61.9913156,39.184778 C61.9913156,42.1998748 63.6193049,43.3236836 66.0850442,43.3236836 M65.3453224,61 C61.2515938,61 58.3420215,60.1309793 55.5797921,58.2409373 C55.1852738,57.9350669 55.0866442,57.474704 55.3825329,56.9638818 L57.996818,52.8255991 C58.2921053,52.3664821 58.6379102,52.2636947 59.131058,52.570811 C60.7091312,53.5413732 62.7809536,54.2565242 65.0494337,54.2565242 C68.1562652,54.2565242 69.7343384,53.029928 69.685625,49.2498439 C68.3042096,49.7095838 66.5781921,50.0167001 65.0987485,50.0167001 C58.7365398,50.0167001 54.3469224,46.0310411 54.3469224,39.0832365 L54.3469224,34.8938716 C54.3469224,26.9237996 59.4762615,23.3991266 66.1836738,23.3991266 C69.8335693,23.3991266 73.5321783,24.2681472 76.442352,25.4430382 C76.8861851,25.6473671 77.0840456,26.0049426 77.0840456,26.5151419 L77.0840456,48.126035 C77.0840456,56.8617174 73.6308078,61 65.3453224,61 M39.1871572,45.237552 C40.3213973,45.237552 41.6528965,45.0304785 42.5411641,44.8240345 L42.5411641,40.2816353 C41.5548684,40.0751912 40.2227677,39.9719692 39.1378425,39.9719692 C36.4255292,39.9719692 35.241373,40.9009675 35.241373,42.5531496 C35.241373,44.3595353 36.8194461,45.237552 39.1871572,45.237552 M39.2857868,23.4029436 C46.0918286,23.4029436 50.0869277,27.1195664 50.0869277,34.9657003 L50.0869277,49.1077491 C50.0869277,49.6244887 49.8403538,49.9857658 49.3472059,50.1412283 C46.4376335,51.0702267 42.5411641,51.6373185 39.1871572,51.6373185 C32.0846253,51.6373185 27.5969798,48.8503234 27.5969798,42.7595937 C27.5969798,37.3914182 31.6407922,34.7070158 38.3488059,34.7070158 C39.8775642,34.7070158 41.307693,34.8624782 42.5411641,35.0173113 L42.5411641,34.5005717 C42.5411641,31.7651876 41.6041831,30.2678386 38.3981207,30.2678386 C36.2282701,30.2678386 33.6632998,30.8878003 32.2331711,31.7135766 C31.789338,31.9716317 31.2961901,31.9200207 31.0490148,31.4039105 L29.0271086,27.3782509 C28.7805347,26.8615113 28.7805347,26.5002342 29.1257382,26.2421791 C31.4441345,24.6938485 35.0441138,23.4029436 39.2857868,23.4029436 M15.5399024,40.2073568 L15.5399024,34.8431009 C15.5399024,31.6753804 13.9709136,30.3466197 11.237219,30.3466197 C9.97190547,30.3466197 8.70659189,30.5515716 7.74495356,30.9091471 L7.74495356,43.6815706 C8.70659189,44.243475 9.92129292,44.5493453 11.2878316,44.5493453 C14.0215261,44.5493453 15.5399024,43.1701254 15.5399024,40.2073568 M11.3890567,23.3988151 C18.4760472,23.3988151 23.3854639,27.6903444 23.3854639,34.9957246 L23.3854639,40.0541101 C23.3854639,47.0019148 18.8809475,51.3439033 12.4019248,51.3439033 C10.7310936,51.3439033 9.00964992,50.9869508 7.74495356,50.4755056 L7.74495356,59.467222 C7.74495356,60.0802086 7.44066108,60.3867019 6.88454033,60.3867019 L0.911025778,60.3867019 C0.303675259,60.3867019 0,60.0802086 0,59.467222 L0,26.3105015 C0,25.8009253 0.202450173,25.493809 0.658580288,25.3399394 C3.74594542,24.1656713 7.94740374,23.3988151 11.3890567,23.3988151" id="Lettering---pagarme---branco"></path>
            </g>
        </g>
    </g>
</svg>