<svg xmlns="http://www.w3.org/2000/svg" id="Layer_1" viewBox="0 0 500 128"><style>.st0{fill:#F26F21;}</style><g id="XMLID_89_"><g id="XMLID_161_"><g id="XMLID_147_"><path id="XMLID_153_" d="M172.6 98V41.6h10.6v2c3.5-2 6.5-3 9-3 5.5 0 9.4 1.6 12 4.8 2.6 3.2 3.8 8.6 3.8 16.3 0 7.7-1.4 13-4.2 16-2.8 3-7.4 4.5-14 4.5-1.7 0-3.5-.2-5.6-.5l-1-.2V98h-10.6zm17.6-47.8c-2 0-4 .4-6 1.2l-1 .4v20.8c2.4.3 4.3.5 5.8.5 3 0 5.2-.8 6.3-2.6 1-1.8 1.7-5 1.7-9.2 0-7.4-2.2-11-6.8-11z" class="st0"/></g></g><g id="XMLID_152_"><g id="XMLID_156_"><path id="XMLID_157_" d="M248.5 54v16.5c0 1.3.3 2.2.6 2.7.4.5 1 1 2 1l-.2 8c-2.7 0-5 0-6.5-.5-1.6-.4-3.3-1-5-2.2-3.7 2-7.6 2.8-11.6 2.8-8.2 0-12.4-4.3-12.4-13 0-4.2 1-7.2 3.4-9 2.3-1.8 5.8-2.8 10.5-3l8.5-.7V54c0-1.6-.4-2.8-1-3.4-.8-.6-2-1-3.7-1l-15 .7-.3-7.4c5.7-1.6 11-2.4 16.2-2.4 5 0 8.7 1 11 3.2 2.4 2 3.5 5.5 3.5 10.2zm-18 10.5c-3 .3-4.5 2-4.5 4.8 0 3 1.3 4.4 4 4.4 2 0 4-.3 6.5-1l1.2-.3V64l-7.2.5z" class="st0"/></g></g><g id="XMLID_141_"><g id="XMLID_179_"><path id="XMLID_180_" d="M296.8 86.3c0 4.5-1.8 8-5.3 10-3.5 2.3-8.3 3.4-14.2 3.4-6 0-10.6-.8-13.8-2.4-3.2-1.6-4.8-4.5-4.8-8.7 0-3.3 2-6.5 5.7-9.5-2-1.2-3-3.2-3-6 0-1 1-2.7 2.5-5l.6-1.2c-3.6-2.6-5.4-6.4-5.4-11.5s1.5-8.7 4.6-11c3-2.3 7-3.4 12.2-3.4 2.3 0 4.5.2 6.8.7l1.3.2 13-.5V50l-6-.5c1 1.8 1.7 3.6 1.7 5.4 0 5.2-1.4 9-4 11-2.8 2-7 3-13 3-1 0-2.2-.2-3.2-.4-.5 1.4-.8 2.5-.8 3.4 0 1 .5 1.5 1.4 1.8 1 .3 3 .5 6.5.6 6.7 0 11.3 1 13.7 2.7 2.4 1.6 3.6 4.7 3.6 9.3zm-27.6 1c0 2.4 2.8 3.5 8.4 3.5 5.6 0 8.4-1.3 8.4-4 0-1.4-.5-2.3-1.4-2.7-1-.3-3-.5-6-.6l-7.3-.6c-1.4 1.5-2 3-2 4.6zM270 55c0 3.8 2 5.7 6 5.7s6-2 6-5.8c0-4-2-6-6-6s-6 2-6 6z" class="st0"/></g></g><g id="XMLID_132_"><g id="XMLID_164_"><path id="XMLID_165_" d="M335.8 54v16.5c0 1.3.3 2.2.6 2.7s1 1 2 1l-.3 8c-2.6 0-4.8 0-6.4-.5-1.6-.4-3.3-1-5-2.2-3.7 2-7.6 2.8-11.6 2.8-8.2 0-12.4-4.3-12.4-13 0-4.2 1-7.2 3.4-9 2.3-1.8 5.8-2.8 10.5-3l8.5-.7V54c0-1.6-.4-2.8-1-3.4-.8-.6-2-1-3.7-1l-15 .7-.3-7.4c5.7-1.6 11-2.4 16.2-2.4 5 0 8.8 1 11 3.2 2.5 2 3.6 5.5 3.6 10.2zm-18 10.5c-3 .3-4.4 2-4.4 4.8 0 3 1.3 4.4 4 4.4 2 0 4-.3 6.5-1l1-.3V64l-7 .5z" class="st0"/></g></g><path id="XMLID_126_" d="M348 81.3V41.6h10.6v4.2c4.5-2.6 8.7-4.4 12.8-5.2v10.7c-4.3 1-8 1.8-11 2.8l-1.7.7v26.6H348z" class="st0"/><path id="XMLID_118_" d="M32 84.5l9.4-17.7h46.3c-2.3 4-4 7-11 7H51.3c.5-.7-5.2 10.7-5.2 10.7H32zM45.2 60C48 55 51 49 51 49c1.7-2.5 3.8-5.7 10.7-5.7h26.8c6 .4 7.6 3 6.2 7.8-.4 1.2-2.6 6.6-4 9H45.2z" class="st0"/><path id="XMLID_110_" d="M63.8 127C28.6 127 0 98.5 0 63.5S28.6 0 63.8 0c35 0 63.7 28.5 63.7 63.5S99 127 63.8 127zm0-119.7c-31 0-56.5 25.2-56.5 56.2s25.3 56.2 56.4 56.2c31 0 56.4-25.2 56.4-56.2S95 7.3 64 7.3z" class="st0"/><path id="XMLID_104_" d="M377 81.6V68.4h11.6v13.2H377z" class="st0"/><path id="XMLID_98_" d="M405.7 81.6H401V42h4.7v2.8c4-2.5 8.3-3.7 13-3.7s7.7 1.5 9.6 4.3c2-1.2 4.2-2.2 7-3 2.7-.8 5.2-1.2 7.4-1.2 5.3 0 9 1.5 10.6 4.3 1.8 2.8 2.7 8 2.7 15.5v21h-4.7v-21c0-6-.6-10-1.7-12.3-1-2-3.6-3.2-7.5-3.2-1.8 0-3.8.3-5.8.8-2 .7-3.6 1.2-4.6 1.8l-1.6.8c.8 2 1.2 6 1.2 12.2v20.7h-4.8V61c0-6-.6-10.3-1.7-12.4-1-2-3.6-3.2-7.4-3.2-2 0-3.8.3-5.7.8-2 .6-3.4 1-4.4 1.7l-1.5.7v33z" class="st0"/><path id="XMLID_90_" d="M496 77.6l2.4-.2.2 4c-6 .6-11 1-15.2 1-5.7 0-9.8-1.7-12-5-2.3-3.4-3.4-8.6-3.4-15.5 0-14 5.5-21 16.4-21 5.3 0 9.2 1.6 11.8 4.6 2.6 3 4 7.8 4 14.3l-.3 3.7h-27.2c0 5 .8 8.5 2.5 10.8C477 77 479.8 78 484 78c4 0 8 0 12-.4zm-23.3-18h22.5c0-5-1-9-2.6-11S488 45 484.3 45s-6.7 1.2-8.7 3.5c-2 2.3-3 6-3 11z" class="st0"/></g></svg>
