<?xml version="1.0" encoding="UTF-8"?>
<svg width="200px" height="38px" viewBox="0 0 200 38" version="1.1" xmlns="http://www.w3.org/2000/svg" xmlns:xlink="http://www.w3.org/1999/xlink">
    <!-- Generator: Sketch 49.3 (51167) - http://www.bohemiancoding.com/sketch -->
    <title>Lettering - pagarme - cinza e verde</title>
    <desc>Created with Sketch.</desc>
    <defs></defs>
    <g id="Pagar.me-Styleguide" stroke="none" stroke-width="1" fill="none" fill-rule="evenodd">
        <g id="Logotipo-Pagar.Me-Cores" transform="translate(-23.000000, -486.000000)">
            <g id="Cinza-e-verde" transform="translate(23.000000, 463.000000)">
                <g id="Lettering---pagarme---cinza-e-verde" transform="translate(0.000000, 23.000000)">
                    <path d="M188.661556,6.95855016 C186.333379,6.95855016 184.763773,8.19721464 184.763773,11.0364501 L184.763773,12.1196522 L192.559339,12.1196522 L192.559339,11.0364501 C192.559339,8.24945506 190.93912,6.95855016 188.661556,6.95855016 Z M200,16.3523852 C200,16.9207358 199.696325,17.2304019 199.088974,17.2304019 L184.763773,17.2304019 L184.763773,18.0561782 C184.763773,20.6889697 186.434604,22.0302268 189.117069,22.0302268 C191.647696,22.0302268 193.723427,21.2560615 195.545479,20.1728595 C196.001609,19.8109529 196.405892,19.9148044 196.709567,20.3793035 L199.342037,23.9404639 C199.645712,24.4055925 199.645712,24.8694623 199.190199,25.2307394 C196.608342,27.2435692 193.318527,28.6370667 188.864006,28.6370667 C182.283758,28.6370667 176.968824,25.0759063 176.968824,17.9013452 L176.968824,11.3977273 C176.968824,3.70642651 182.283758,0.402691836 188.712786,0.402691836 C194.938128,0.402691836 200,3.60383387 200,11.3977273 L200,16.3523852 Z M160.192098,0 C166.825747,0 171.399135,3.97231157 171.399135,11.1531481 L171.399135,26.2264466 C171.399135,26.837476 171.097634,27.1429906 170.544881,27.1429906 L164.714623,27.1429906 C164.111619,27.1429906 163.810118,26.837476 163.810118,26.2264466 L163.810118,10.8979315 C163.810118,8.40289513 162.604111,6.92624094 159.940846,6.92624094 C158.834727,6.92624094 157.729221,7.18083649 156.673965,7.7409467 C157.025717,8.75932891 157.176468,9.87954933 157.176468,11.0506889 L157.176468,26.2264466 C157.176468,26.837476 156.874967,27.1429906 156.322214,27.1429906 L150.492568,27.1429906 C149.889565,27.1429906 149.588063,26.837476 149.588063,26.2264466 L149.588063,10.8979315 C149.588063,8.24951684 148.382057,6.87470086 145.91918,6.87470086 C144.863924,6.87470086 143.758418,7.0783773 142.953801,7.33359382 L142.953801,26.2264466 C142.953801,26.837476 142.602662,27.1429906 142.049909,27.1429906 L136.219651,27.1429906 C135.616648,27.1429906 135.315146,26.837476 135.315146,26.2264466 L135.315146,3.1066867 C135.315146,2.59749559 135.516147,2.24106182 136.01865,1.98646627 C138.933779,0.763786655 142.551799,0 145.81868,0 C148.431694,0 150.74382,0.763786655 152.65333,2.1392236 C155.317208,0.712867545 157.47797,0 160.192098,0 M111.132355,28.5881719 C110.517816,28.5881719 110.210547,28.2709809 110.210547,27.6378858 L110.210547,3.68385473 C110.210547,3.20838996 110.415393,2.83908444 110.876297,2.57529478 C113.693555,1.15083063 116.971716,0.412219593 120.300464,0.412219593 C121.836809,0.412219593 123.42499,0.623251319 125.268604,0.939798908 C125.831931,1.04467138 126.087989,1.36186236 126.087989,1.9421996 L126.087989,6.79657269 C126.087989,7.42966786 125.729508,7.74621545 125.11497,7.64134298 C124.09074,7.48306918 122.963462,7.42966786 121.939232,7.42966786 C120.402887,7.42966786 119.019551,7.69345752 118.046533,8.11552097 L118.046533,27.6378858 C118.046533,28.2709809 117.739888,28.5881719 117.175937,28.5881719 L111.132355,28.5881719 Z M93.4130784,22.237552 C94.5771669,22.237552 95.9437055,22.0304785 96.8553485,21.8240345 L96.8553485,17.2816353 C95.8424804,17.0751912 94.4759418,16.9719692 93.3624658,16.9719692 C90.5781587,16.9719692 89.3634577,17.9009675 89.3634577,19.5531496 C89.3634577,21.3595353 90.9830591,22.237552 93.4130784,22.237552 M93.5143035,0.402943597 C100.499452,0.402943597 104.599685,4.11956643 104.599685,11.9657003 L104.599685,26.1077491 C104.599685,26.6244887 104.346005,26.9857658 103.840497,27.1412283 C100.853739,28.0702267 96.8553485,28.6373185 93.4130784,28.6373185 C86.1236377,28.6373185 81.5178963,25.8503234 81.5178963,19.7595937 C81.5178963,14.3914182 85.6681248,11.7070158 92.5526651,11.7070158 C94.121654,11.7070158 95.5894177,11.8624782 96.8553485,12.0173113 L96.8553485,11.5005717 C96.8553485,8.76518762 95.8937102,7.26783864 92.6032777,7.26783864 C90.3763258,7.26783864 87.7432391,7.88780028 86.2760926,8.7135766 C85.8199624,8.9716317 85.313837,8.92002068 85.0607743,8.40391048 L82.98566,4.37825093 C82.7319801,3.86151133 82.7319801,3.50023419 83.0868851,3.24217909 C85.4656746,1.6938485 89.1610075,0.402943597 93.5143035,0.402943597 M66.0850442,20.3236836 C67.5157744,20.3236836 68.8472736,20.0165673 69.5376806,19.4546629 L69.5376806,7.8577534 C68.7973574,7.55126009 67.4171448,7.34693121 66.23359,7.34693121 C63.5699902,7.34693121 61.9913156,8.47074002 61.9913156,11.6895427 L61.9913156,16.184778 C61.9913156,19.1998748 63.6193049,20.3236836 66.0850442,20.3236836 M65.3453224,38 C61.2515938,38 58.3420215,37.1309793 55.5797921,35.2409373 C55.1852738,34.9350669 55.0866442,34.474704 55.3825329,33.9638818 L57.996818,29.8255991 C58.2921053,29.3664821 58.6379102,29.2636947 59.131058,29.570811 C60.7091312,30.5413732 62.7809536,31.2565242 65.0494337,31.2565242 C68.1562652,31.2565242 69.7343384,30.029928 69.685625,26.2498439 C68.3042096,26.7095838 66.5781921,27.0167001 65.0987485,27.0167001 C58.7365398,27.0167001 54.3469224,23.0310411 54.3469224,16.0832365 L54.3469224,11.8938716 C54.3469224,3.92379963 59.4762615,0.399126553 66.1836738,0.399126553 C69.8335693,0.399126553 73.5321783,1.26814722 76.442352,2.44303824 C76.8861851,2.64736712 77.0840456,3.00494265 77.0840456,3.51514188 L77.0840456,25.126035 C77.0840456,33.8617174 73.6308078,38 65.3453224,38 M39.1871572,22.237552 C40.3213973,22.237552 41.6528965,22.0304785 42.5411641,21.8240345 L42.5411641,17.2816353 C41.5548684,17.0751912 40.2227677,16.9719692 39.1378425,16.9719692 C36.4255292,16.9719692 35.241373,17.9009675 35.241373,19.5531496 C35.241373,21.3595353 36.8194461,22.237552 39.1871572,22.237552 M39.2857868,0.402943597 C46.0918286,0.402943597 50.0869277,4.11956643 50.0869277,11.9657003 L50.0869277,26.1077491 C50.0869277,26.6244887 49.8403538,26.9857658 49.3472059,27.1412283 C46.4376335,28.0702267 42.5411641,28.6373185 39.1871572,28.6373185 C32.0846253,28.6373185 27.5969798,25.8503234 27.5969798,19.7595937 C27.5969798,14.3914182 31.6407922,11.7070158 38.3488059,11.7070158 C39.8775642,11.7070158 41.307693,11.8624782 42.5411641,12.0173113 L42.5411641,11.5005717 C42.5411641,8.76518762 41.6041831,7.26783864 38.3981207,7.26783864 C36.2282701,7.26783864 33.6632998,7.88780028 32.2331711,8.7135766 C31.789338,8.9716317 31.2961901,8.92002068 31.0490148,8.40391048 L29.0271086,4.37825093 C28.7805347,3.86151133 28.7805347,3.50023419 29.1257382,3.24217909 C31.4441345,1.6938485 35.0441138,0.402943597 39.2857868,0.402943597 M15.5399024,17.2073568 L15.5399024,11.8431009 C15.5399024,8.67538037 13.9709136,7.34661974 11.237219,7.34661974 C9.97190547,7.34661974 8.70659189,7.55157157 7.74495356,7.90914709 L7.74495356,20.6815706 C8.70659189,21.243475 9.92129292,21.5493453 11.2878316,21.5493453 C14.0215261,21.5493453 15.5399024,20.1701254 15.5399024,17.2073568 M11.3890567,0.398815076 C18.4760472,0.398815076 23.3854639,4.69034438 23.3854639,11.9957246 L23.3854639,17.0541101 C23.3854639,24.0019148 18.8809475,28.3439033 12.4019248,28.3439033 C10.7310936,28.3439033 9.00964992,27.9869508 7.74495356,27.4755056 L7.74495356,36.467222 C7.74495356,37.0802086 7.44066108,37.3867019 6.88454033,37.3867019 L0.911025778,37.3867019 C0.303675259,37.3867019 0,37.0802086 0,36.467222 L0,3.31050153 C0,2.80092525 0.202450173,2.49380899 0.658580288,2.33993938 C3.74594542,1.16567131 7.94740374,0.398815076 11.3890567,0.398815076" fill="#757575"></path>
                    <path d="M128.341109,26.966882 L123.107077,23.4046709 C122.545307,23.0221951 122.545307,22.2164029 123.107077,21.8345753 L128.341109,18.271716 C128.997958,17.8244138 129.902547,18.2794951 129.902547,19.0567638 L129.902547,26.1818342 C129.902547,26.9591028 128.997958,27.4135359 128.341109,26.966882" id="Path" fill="#95C93F"></path>
                </g>
            </g>
        </g>
    </g>
</svg>