<?xml version="1.0" encoding="UTF-8"?>
<svg width="52px" height="52px" viewBox="0 0 52 52" version="1.1" xmlns="http://www.w3.org/2000/svg" xmlns:xlink="http://www.w3.org/1999/xlink">
    <!-- Generator: Sketch 49.3 (51167) - http://www.bohemiancoding.com/sketch -->
    <title>Simbolo - pagarme - cinza</title>
    <desc>Created with Sketch.</desc>
    <defs></defs>
    <g id="Pagar.me-Styleguide" stroke="none" stroke-width="1" fill="none" fill-rule="evenodd">
        <g id="Logotipo-Pagar.Me-Cores" transform="translate(-272.000000, -382.000000)" fill="#757575">
            <g id="Cinza" transform="translate(24.000000, 372.000000)">
                <path d="M262,38 L270.928932,38 L274.623118,41.6941863 C274.998191,42.0692591 275.506899,42.2799727 276.037332,42.2799727 C277.141902,42.2799727 278.037332,41.3845422 278.037332,40.2799727 L278.037332,31.8621629 C278.037332,31.3317299 277.826618,30.8230221 277.451546,30.4479493 C276.670497,29.6669007 275.404167,29.6669007 274.623118,30.4479493 L271,34.0710678 L271,34 L262,34 L262,25 C262,24.4477153 262.447715,24 263,24 L285,24 C285.552285,24 286,24.4477153 286,25 L286,47 C286,47.5522847 285.552285,48 285,48 L272,48 L272,61 C272,61.5522847 271.552285,62 271,62 L263,62 C262.447715,62 262,61.5522847 262,61 L262,44 L262,38 Z M249,52 L257,52 C257.552285,52 258,52.4477153 258,53 L258,61 C258,61.5522847 257.552285,62 257,62 L249,62 C248.447715,62 248,61.5522847 248,61 L248,53 C248,52.4477153 248.447715,52 249,52 Z M249,38 L257,38 C257.552285,38 258,38.4477153 258,39 L258,47 C258,47.5522847 257.552285,48 257,48 L249,48 C248.447715,48 248,47.5522847 248,47 L248,39 C248,38.4477153 248.447715,38 249,38 Z M249,24 L257,24 C257.552285,24 258,24.4477153 258,25 L258,33 C258,33.5522847 257.552285,34 257,34 L249,34 C248.447715,34 248,33.5522847 248,33 L248,25 C248,24.4477153 248.447715,24 249,24 Z M249,10 L257,10 C257.552285,10 258,10.4477153 258,11 L258,19 C258,19.5522847 257.552285,20 257,20 L249,20 C248.447715,20 248,19.5522847 248,19 L248,11 C248,10.4477153 248.447715,10 249,10 Z M263,10 L271,10 C271.552285,10 272,10.4477153 272,11 L272,19 C272,19.5522847 271.552285,20 271,20 L263,20 C262.447715,20 262,19.5522847 262,19 L262,11 C262,10.4477153 262.447715,10 263,10 Z M277,10 L285,10 C285.552285,10 286,10.4477153 286,11 L286,19 C286,19.5522847 285.552285,20 285,20 L277,20 C276.447715,20 276,19.5522847 276,19 L276,11 C276,10.4477153 276.447715,10 277,10 Z M291,10 L299,10 C299.552285,10 300,10.4477153 300,11 L300,19 C300,19.5522847 299.552285,20 299,20 L291,20 C290.447715,20 290,19.5522847 290,19 L290,11 C290,10.4477153 290.447715,10 291,10 Z M291,24 L299,24 C299.552285,24 300,24.4477153 300,25 L300,33 C300,33.5522847 299.552285,34 299,34 L291,34 C290.447715,34 290,33.5522847 290,33 L290,25 C290,24.4477153 290.447715,24 291,24 Z M291,38 L299,38 C299.552285,38 300,38.4477153 300,39 L300,47 C300,47.5522847 299.552285,48 299,48 L291,48 C290.447715,48 290,47.5522847 290,47 L290,39 C290,38.4477153 290.447715,38 291,38 Z M291,52 L299,52 C299.552285,52 300,52.4477153 300,53 L300,61 C300,61.5522847 299.552285,62 299,62 L291,62 C290.447715,62 290,61.5522847 290,61 L290,53 C290,52.4477153 290.447715,52 291,52 Z M277,52 L285,52 C285.552285,52 286,52.4477153 286,53 L286,61 C286,61.5522847 285.552285,62 285,62 L277,62 C276.447715,62 276,61.5522847 276,61 L276,53 C276,52.4477153 276.447715,52 277,52 Z" id="Simbolo---pagarme---cinza"></path>
            </g>
        </g>
    </g>
</svg>